<svg xmlns="http://www.w3.org/2000/svg" viewBox="0 0 34.34 34.34"><title>Asset 1</title><g id="Layer_2" data-name="Layer 2"><g id="katman_1" data-name="katman 1"><path d="M33.76.59h0a2,2,0,0,0-2.83,0L18.59,12.93a2,2,0,0,1-2.83,0L3.41.59A2,2,0,0,0,.59.59h0a2,2,0,0,0,0,2.82L12.93,15.76a2,2,0,0,1,0,2.83L.59,30.93a2,2,0,0,0,0,2.83h0a2,2,0,0,0,2.82,0L15.76,21.41a2,2,0,0,1,2.83,0L30.93,33.76a2,2,0,0,0,2.83,0h0a2,2,0,0,0,0-2.83L21.41,18.59a2,2,0,0,1,0-2.83L33.76,3.41A2,2,0,0,0,33.76.59Z"/></g></g></svg>