<svg xmlns="http://www.w3.org/2000/svg" viewBox="0 0 36 36"><defs><style>.cls-1{fill:none;}.cls-2{fill:#1d1d1d;fill-rule:evenodd;}</style></defs><title>Artboard 4</title><g id="katman_1" data-name="katman 1"><g id="Icons"><g id="Rounded"><g id="Maps"><polygon id="Path" class="cls-1" points="-1 -1 37 -1 37 37 -1 37 -1 -1"/><path class="cls-2" d="M18,11.67A6.33,6.33,0,1,0,24.33,18,6.32,6.32,0,0,0,18,11.67Zm14.16,4.75A14.25,14.25,0,0,0,19.58,3.84V2.17a1.58,1.58,0,1,0-3.16,0V3.84A14.25,14.25,0,0,0,3.84,16.42H2.17a1.58,1.58,0,1,0,0,3.16H3.84A14.25,14.25,0,0,0,16.42,32.16v1.67a1.58,1.58,0,1,0,3.16,0V32.16A14.25,14.25,0,0,0,32.16,19.58h1.67a1.58,1.58,0,1,0,0-3.16ZM18,29.08A11.08,11.08,0,1,1,29.08,18,11.07,11.07,0,0,1,18,29.08Z"/></g></g></g></g></svg>